<?xml version="1.0" encoding="utf-8"?>
<!-- Generator: Adobe Illustrator 22.1.0, SVG Export Plug-In . SVG Version: 6.00 Build 0)  -->
<svg version="1.1" id="Layer_1" xmlns="http://www.w3.org/2000/svg" xmlns:xlink="http://www.w3.org/1999/xlink" x="0px" y="0px"
	 viewBox="0 0 81.8 96" style="enable-background:new 0 0 81.8 96;" xml:space="preserve">
<style type="text/css">
	.st0{fill:#40C4FF;}
	.st1{fill:#263238;}
	.st2{fill:#FFD740;}
	.st3{fill:#FF4800;}
</style>
<g>
	<g>
		<rect x="17.4" y="30.7" class="st0" width="12.6" height="12.6"/>
		<path class="st1" d="M30,44.1H17.4c-0.4,0-0.8-0.4-0.8-0.8V30.7c0-0.4,0.4-0.8,0.8-0.8H30c0.4,0,0.8,0.4,0.8,0.8v12.6
			C30.8,43.7,30.4,44.1,30,44.1z M18.2,42.5h11v-11h-11V42.5z"/>
	</g>
	<g>
		<rect x="37.9" y="24.4" class="st2" width="12.6" height="12.6"/>
		<path class="st1" d="M50.4,37.8H37.9c-0.4,0-0.8-0.4-0.8-0.8V24.4c0-0.4,0.4-0.8,0.8-0.8h12.6c0.4,0,0.8,0.4,0.8,0.8V37
			C51.2,37.4,50.9,37.8,50.4,37.8z M38.6,36.2h11v-11h-11V36.2z"/>
	</g>
	<g>
		<rect x="65.4" y="32.3" class="st2" width="12.6" height="12.6"/>
		<path class="st1" d="M78,45.6H65.4c-0.4,0-0.8-0.4-0.8-0.8V32.3c0-0.4,0.4-0.8,0.8-0.8H78c0.4,0,0.8,0.4,0.8,0.8v12.6
			C78.8,45.3,78.4,45.6,78,45.6z M66.2,44.1h11V33h-11V44.1z"/>
	</g>
	<g>
		<rect x="39.4" y="66.9" class="st2" width="12.6" height="12.6"/>
		<path class="st1" d="M52,80.3H39.4c-0.4,0-0.8-0.4-0.8-0.8V66.9c0-0.4,0.4-0.8,0.8-0.8H52c0.4,0,0.8,0.4,0.8,0.8v12.6
			C52.8,79.9,52.5,80.3,52,80.3z M40.2,78.7h11v-11h-11V78.7z"/>
	</g>
	<g>
		<path class="st1" d="M37.9,63H25.3c-0.4,0-0.8-0.4-0.8-0.8V49.6c0-0.4,0.4-0.8,0.8-0.8h12.6c0.4,0,0.8,0.4,0.8,0.8v12.6
			C38.6,62.6,38.3,63,37.9,63z M26,61.4h11v-11H26V61.4z"/>
	</g>
	<g>
		<rect x="45.7" y="43.3" class="st3" width="12.6" height="12.6"/>
		<path class="st1" d="M58.3,56.7H45.7c-0.4,0-0.8-0.4-0.8-0.8V43.3c0-0.4,0.4-0.8,0.8-0.8h12.6c0.4,0,0.8,0.4,0.8,0.8v12.6
			C59.1,56.3,58.7,56.7,58.3,56.7z M46.5,55.1h11v-11h-11V55.1z"/>
	</g>
	<g>
		<rect x="59.1" y="59" class="st0" width="12.6" height="12.6"/>
		<path class="st1" d="M71.7,72.4H59.1c-0.4,0-0.8-0.4-0.8-0.8V59c0-0.4,0.4-0.8,0.8-0.8h12.6c0.4,0,0.8,0.4,0.8,0.8v12.6
			C72.5,72,72.1,72.4,71.7,72.4z M59.9,70.8h11v-11h-11V70.8z"/>
	</g>
	<g>
		<path class="st1" d="M5.6,82.9H4.8c-2.6,0-4.7-2.1-4.7-4.7V10.5c0-2.6,2.1-4.7,4.7-4.7h48.8c2.6,0,4.7,2.1,4.7,4.7v0.8
			c0,0.4-0.4,0.8-0.8,0.8c-0.4,0-0.8-0.4-0.8-0.8v-0.8c0-1.7-1.4-3.1-3.1-3.1H4.8c-1.7,0-3.1,1.4-3.1,3.1v67.7
			c0,1.7,1.4,3.1,3.1,3.1h0.8c0.4,0,0.8,0.4,0.8,0.8C6.4,82.6,6,82.9,5.6,82.9z"/>
	</g>
	<g>
		<path class="st1" d="M61.5,90.8H12.7c-2.6,0-4.7-2.1-4.7-4.7V18.4c0-2.6,2.1-4.7,4.7-4.7h48.8c2.6,0,4.7,2.1,4.7,4.7v11
			c0,0.4-0.4,0.8-0.8,0.8c-0.4,0-0.8-0.4-0.8-0.8v-11c0-1.7-1.4-3.1-3.1-3.1H12.7c-1.7,0-3.1,1.4-3.1,3.1v67.7
			c0,1.7,1.4,3.1,3.1,3.1h48.8c1.7,0,3.1-1.4,3.1-3.1V75c0-0.4,0.4-0.8,0.8-0.8c0.4,0,0.8,0.4,0.8,0.8v11
			C66.2,88.7,64.1,90.8,61.5,90.8z"/>
	</g>
	<g>
		<path class="st1" d="M65.4,56.7c-0.4,0-0.8-0.4-0.8-0.8V48c0-0.4,0.4-0.8,0.8-0.8c0.4,0,0.8,0.4,0.8,0.8v7.9
			C66.2,56.3,65.8,56.7,65.4,56.7z"/>
	</g>
	<g>
		<path class="st1" d="M18.2,96H15c-0.4,0-0.8-0.4-0.8-0.8c0-0.4,0.4-0.8,0.8-0.8h3.1c0.4,0,0.8,0.4,0.8,0.8
			C19,95.6,18.6,96,18.2,96z"/>
	</g>
	<g>
		<path class="st1" d="M52.8,96H21.3c-0.4,0-0.8-0.4-0.8-0.8c0-0.4,0.4-0.8,0.8-0.8h31.5c0.4,0,0.8,0.4,0.8,0.8
			C53.6,95.6,53.2,96,52.8,96z"/>
	</g>
	<g>
		<path class="st1" d="M70.1,4.7h-6.3c-0.4,0-0.8-0.4-0.8-0.8c0-0.4,0.4-0.8,0.8-0.8h6.3c0.4,0,0.8,0.4,0.8,0.8
			C70.9,4.4,70.5,4.7,70.1,4.7z"/>
	</g>
	<g>
		<path class="st1" d="M67,7.9c-0.4,0-0.8-0.4-0.8-0.8V0.8C66.2,0.4,66.5,0,67,0c0.4,0,0.8,0.4,0.8,0.8v6.3
			C67.8,7.5,67.4,7.9,67,7.9z"/>
	</g>
	<g>
		<path class="st1" d="M81.1,15h-6.3c-0.4,0-0.8-0.4-0.8-0.8c0-0.4,0.4-0.8,0.8-0.8h6.3c0.4,0,0.8,0.4,0.8,0.8
			C81.9,14.6,81.6,15,81.1,15z"/>
	</g>
	<g>
		<path class="st1" d="M78,18.1c-0.4,0-0.8-0.4-0.8-0.8V11c0-0.4,0.4-0.8,0.8-0.8c0.4,0,0.8,0.4,0.8,0.8v6.3
			C78.8,17.7,78.4,18.1,78,18.1z"/>
	</g>
</g>
</svg>
