<?xml version="1.0" encoding="utf-8"?>
<!-- Generator: Adobe Illustrator 22.1.0, SVG Export Plug-In . SVG Version: 6.00 Build 0)  -->
<svg version="1.1" id="Layer_1" xmlns="http://www.w3.org/2000/svg" xmlns:xlink="http://www.w3.org/1999/xlink" x="0px" y="0px"
	 viewBox="0 0 98.3 96" style="enable-background:new 0 0 98.3 96;" xml:space="preserve">
<style type="text/css">
	.st0{fill:#263238;}
	.st1{fill:#FF4800;}
	.st2{fill:#FFD740;}
	.st3{fill:#40C4FF;}
</style>
<path class="st0" d="M49,63.5c-0.4,0-0.8-0.3-0.8-0.8v-8.6c0-0.4,0.3-0.8,0.8-0.8c0.4,0,0.8,0.3,0.8,0.8v8.6
	C49.7,63.1,49.4,63.5,49,63.5z"/>
<path class="st0" d="M84.8,63.5c-0.4,0-0.8-0.3-0.8-0.8V58c0-1.7-1.4-3.1-3.1-3.1H17c-1.7,0-3.1,1.4-3.1,3.1v4.7
	c0,0.4-0.3,0.8-0.8,0.8c-0.4,0-0.8-0.3-0.8-0.8V58c0-2.6,2.1-4.7,4.7-4.7h64c2.6,0,4.7,2.1,4.7,4.7v4.7
	C85.6,63.1,85.3,63.5,84.8,63.5z"/>
<path class="st0" d="M48.9,20.5c-5.6,0-10.1-4.6-10.1-10.1c0-5.6,4.6-10.1,10.1-10.1c5.6,0,10.1,4.6,10.1,10.1
	C59.1,16,54.5,20.5,48.9,20.5z M48.9,1.8c-4.7,0-8.6,3.9-8.6,8.6c0,4.7,3.9,8.6,8.6,8.6c4.7,0,8.6-3.9,8.6-8.6
	C57.5,5.7,53.7,1.8,48.9,1.8z"/>
<path class="st0" d="M40.5,11.2h-0.9c-0.4,0-0.8-0.3-0.8-0.8c0-5.6,4.6-10.1,10.1-10.1c3,0,5.9,1.3,7.8,3.7c0.1,0.2,0.2,0.4,0.2,0.6
	c0,0.2-0.1,0.4-0.3,0.5l-0.7,0.6C51.6,9.2,46.1,11.2,40.5,11.2z M40.4,9.6L40.4,9.6c5.3,0,10.5-1.9,14.5-5.2l0,0L55,4.3
	c-1.6-1.6-3.8-2.5-6.1-2.5C44.5,1.8,40.8,5.2,40.4,9.6z"/>
<path class="st0" d="M64.6,43.2c-0.4,0-0.8-0.3-0.8-0.8V31.6c0-2.7-1.5-5.1-3.9-6.3L53.3,22c-0.4-0.2-0.5-0.7-0.3-1
	c0.2-0.4,0.7-0.5,1-0.3l6.6,3.3c2.9,1.5,4.7,4.4,4.7,7.7v10.8C65.3,42.8,65,43.2,64.6,43.2z"/>
<path class="st0" d="M33.3,43.2c-0.4,0-0.8-0.3-0.8-0.8V31.6c0-3.3,1.8-6.2,4.7-7.7l6.6-3.3c0.4-0.2,0.9,0,1,0.3
	c0.2,0.4,0,0.9-0.3,1L38,25.3c-2.4,1.2-3.9,3.6-3.9,6.3v10.8C34.1,42.8,33.8,43.2,33.3,43.2z"/>
<path class="st0" d="M75.3,94.7c-1,0-2-0.4-2.8-1.1c-1.5-1.5-1.5-4,0-5.5l11.6-11.6c-0.5-2.3,0.3-4.7,1.9-6.3c2-2,5.1-2.6,7.7-1.5
	c0.2,0.1,0.4,0.3,0.5,0.6c0,0.3,0,0.5-0.2,0.7L89.9,74l2.2,2.2l4.1-4.1c0.2-0.2,0.4-0.3,0.7-0.2c0.3,0,0.5,0.2,0.6,0.5
	C98.6,75,98,78,96,80c-1.6,1.6-4,2.3-6.3,1.9L78,93.6C77.3,94.3,76.3,94.7,75.3,94.7z M91,69.6c-1.4,0-2.8,0.6-3.8,1.6
	c-1.4,1.4-1.9,3.3-1.4,5.3c0.1,0.3,0,0.6-0.2,0.8L73.6,89.2c-0.9,0.9-0.9,2.4,0,3.3c0.9,0.9,2.4,0.9,3.3,0l11.9-11.9
	c0.2-0.2,0.5-0.3,0.8-0.2c1.9,0.5,3.9,0,5.3-1.4l0,0c1.3-1.3,1.8-3.1,1.5-4.8l-3.7,3.7c-0.1,0.1-0.3,0.2-0.6,0.2l0,0
	c-0.2,0-0.4-0.1-0.6-0.2l-3.3-3.3c-0.3-0.3-0.3-0.8,0-1.1l3.7-3.7C91.6,69.6,91.3,69.6,91,69.6z"/>
<path class="st0" d="M75.3,91.6c-0.2,0-0.4-0.1-0.6-0.2c-0.3-0.3-0.3-0.8,0-1.1l2.2-2.2c0.3-0.3,0.8-0.3,1.1,0
	c0.3,0.3,0.3,0.8,0,1.1l-2.2,2.2C75.7,91.5,75.5,91.6,75.3,91.6z"/>
<rect x="90.1" y="84.4" transform="matrix(0.707 -0.7072 0.7072 0.707 -35.9409 91.4725)" class="st1" width="4.7" height="9.4"/>
<path class="st0" d="M94.1,94.9c-0.2,0-0.4-0.1-0.6-0.2L86.9,88c-0.1-0.1-0.2-0.3-0.2-0.6c0-0.2,0.1-0.4,0.2-0.6l3.3-3.3
	c0.3-0.3,0.8-0.3,1.1,0l6.6,6.6c0.3,0.3,0.3,0.8,0,1.1l-3.3,3.3C94.5,94.8,94.3,94.9,94.1,94.9z M88.6,87.5l5.5,5.5l2.2-2.2
	l-5.5-5.5L88.6,87.5z"/>
<path class="st0" d="M80.3,77.8c-0.2,0-0.4-0.1-0.6-0.2l-7.2-7.2c-0.3-0.3-0.3-0.8,0-1.1c0.3-0.3,0.8-0.3,1.1,0l7.2,7.2
	c0.3,0.3,0.3,0.8,0,1.1C80.7,77.7,80.5,77.8,80.3,77.8z"/>
<path class="st2" d="M22.5,94.7H3.7c-1.7,0-3.1-1.4-3.1-3.1V72.8c0-1.7,1.4-3.1,3.1-3.1h18.7c1.7,0,3.1,1.4,3.1,3.1v18.7
	C25.6,93.3,24.2,94.7,22.5,94.7z"/>
<path class="st0" d="M22.5,95.5H3.7c-2.2,0-3.9-1.8-3.9-3.9V72.8c0-2.2,1.8-3.9,3.9-3.9h18.7c2.2,0,3.9,1.8,3.9,3.9v18.7
	C26.4,93.7,24.6,95.5,22.5,95.5z M3.7,70.5c-1.3,0-2.3,1-2.3,2.3v18.7c0,1.3,1.1,2.3,2.3,2.3h18.7c1.3,0,2.3-1,2.3-2.3V72.8
	c0-1.3-1.1-2.3-2.3-2.3H3.7z"/>
<path class="st0" d="M25.6,75.2h-25c-0.4,0-0.8-0.3-0.8-0.8c0-0.4,0.3-0.8,0.8-0.8h25c0.4,0,0.8,0.3,0.8,0.8
	C26.4,74.8,26,75.2,25.6,75.2z"/>
<path class="st0" d="M8.8,88.8c-0.2,0-0.4-0.1-0.6-0.2l-3.9-3.9c-0.3-0.3-0.3-0.8,0-1.1l3.9-3.9c0.3-0.3,0.8-0.3,1.1,0
	c0.3,0.3,0.3,0.8,0,1.1L6,84.2l3.4,3.4c0.3,0.3,0.3,0.8,0,1.1C9.2,88.8,9,88.8,8.8,88.8z"/>
<path class="st0" d="M17.4,88.8c-0.2,0-0.4-0.1-0.6-0.2c-0.3-0.3-0.3-0.8,0-1.1l3.4-3.4l-3.4-3.4c-0.3-0.3-0.3-0.8,0-1.1
	c0.3-0.3,0.8-0.3,1.1,0l3.9,3.9c0.3,0.3,0.3,0.8,0,1.1l-3.9,3.9C17.8,88.8,17.6,88.8,17.4,88.8z"/>
<path class="st0" d="M11.1,89.6c-0.1,0-0.2,0-0.3-0.1c-0.4-0.2-0.6-0.6-0.4-1l3.9-9.4c0.2-0.4,0.6-0.6,1-0.4c0.4,0.2,0.6,0.6,0.4,1
	l-3.9,9.4C11.7,89.4,11.5,89.6,11.1,89.6z"/>
<path class="st0" d="M60.6,50.2H37.2c-0.4,0-0.8-0.3-0.8-0.8V33.8c0-0.4,0.3-0.8,0.8-0.8h23.4c0.4,0,0.8,0.3,0.8,0.8v15.6
	C61.4,49.9,61.1,50.2,60.6,50.2z M38,48.6h21.9v-14H38V48.6z"/>
<path class="st0" d="M50.9,31.5c-0.4,0-0.8-0.3-0.8-0.7l-0.3-5.4h-1.6l-0.3,5.4c0,0.4-0.4,0.8-0.8,0.7c-0.4,0-0.8-0.4-0.7-0.8
	l0.3-6.1c0-0.4,0.4-0.7,0.8-0.7h3.1c0.4,0,0.8,0.3,0.8,0.7l0.3,6.1C51.7,31.1,51.3,31.4,50.9,31.5C50.9,31.5,50.9,31.5,50.9,31.5z"
	/>
<path class="st0" d="M47.4,25.7L47.4,25.7c-0.3,0-0.5-0.1-0.6-0.3l-3.1-3.6c-0.1-0.1-0.2-0.3-0.2-0.5l0-2.8c0-0.3,0.1-0.5,0.4-0.7
	c0.2-0.1,0.5-0.1,0.8,0c2.6,1.5,6,1.5,8.6,0c0.2-0.1,0.5-0.1,0.8,0c0.2,0.1,0.4,0.4,0.4,0.7l0,2.8c0,0.2-0.1,0.4-0.2,0.5l-3.1,3.6
	c-0.2,0.2-0.5,0.3-0.8,0.2c-0.2-0.1-0.3-0.2-0.4-0.3H48C47.9,25.5,47.6,25.7,47.4,25.7z M47.4,24.9L47.4,24.9L47.4,24.9z M45,21
	l2.4,2.7c0,0,0,0,0,0h3.1l2.4-2.7l0-1.3c-2.5,1-5.3,1-7.8,0L45,21z"/>
<path class="st0" d="M64.6,50.2H33.3c-0.4,0-0.8-0.3-0.8-0.8c0-0.4,0.3-0.8,0.8-0.8h31.2c0.4,0,0.8,0.3,0.8,0.8
	C65.3,49.9,65,50.2,64.6,50.2z"/>
<path class="st0" d="M4.5,19.8H2.9c-0.4,0-0.8-0.3-0.8-0.8c0-0.4,0.3-0.8,0.8-0.8h1.6c0.4,0,0.8,0.3,0.8,0.8
	C5.2,19.5,4.9,19.8,4.5,19.8z"/>
<path class="st0" d="M24.7,19.8H7.6c-0.4,0-0.8-0.3-0.8-0.8c0-0.4,0.3-0.8,0.8-0.8h17.2c0.4,0,0.8,0.3,0.8,0.8
	C25.5,19.5,25.2,19.8,24.7,19.8z"/>
<path class="st0" d="M95,19.8h-1.6c-0.4,0-0.8-0.3-0.8-0.8c0-0.4,0.3-0.8,0.8-0.8H95c0.4,0,0.8,0.3,0.8,0.8
	C95.8,19.5,95.4,19.8,95,19.8z"/>
<path class="st0" d="M90.3,19.8H73.1c-0.4,0-0.8-0.3-0.8-0.8c0-0.4,0.3-0.8,0.8-0.8h17.2c0.4,0,0.8,0.3,0.8,0.8
	C91.1,19.5,90.7,19.8,90.3,19.8z"/>
<path class="st0" d="M49,44.7c-1.7,0-3.1-1.4-3.1-3.1c0-1.7,1.4-3.1,3.1-3.1c1.7,0,3.1,1.4,3.1,3.1C52.1,43.3,50.7,44.7,49,44.7z
	 M49,40.1c-0.9,0-1.6,0.7-1.6,1.6c0,0.9,0.7,1.6,1.6,1.6c0.9,0,1.6-0.7,1.6-1.6C50.5,40.8,49.8,40.1,49,40.1z"/>
<path class="st0" d="M52.2,16c-1.7,0-3.1-1.4-3.1-3.1c0-1.7,1.4-3.1,3.1-3.1s3.1,1.4,3.1,3.1C55.3,14.6,53.9,16,52.2,16z M52.2,11.3
	c-0.9,0-1.6,0.7-1.6,1.6c0,0.9,0.7,1.6,1.6,1.6c0.9,0,1.6-0.7,1.6-1.6C53.8,12,53,11.3,52.2,11.3z"/>
<path class="st3" d="M59.4,84.5c0.2-0.7,0.3-1.5,0.3-2.3c0-0.8-0.1-1.6-0.3-2.3l0.4-0.2l1.1-0.9c0.6-0.5,0.7-1.3,0.3-2l-1.4-2.4
	c-0.4-0.6-1.1-0.9-1.9-0.7l-1.4,0.5l-0.4,0.3c-1.1-1-2.5-1.8-4-2.3v-0.5l-0.3-1.4c-0.1-0.7-0.8-1.3-1.5-1.3h-2.8
	c-0.7,0-1.4,0.5-1.5,1.3l-0.3,1.4v0.5c-1.5,0.5-2.9,1.3-4,2.3l-0.4-0.3l-1.4-0.5c-0.7-0.2-1.5,0.1-1.9,0.7l-1.4,2.4
	c-0.4,0.6-0.2,1.5,0.3,2l1.1,0.9l0.4,0.2c-0.2,0.7-0.3,1.5-0.3,2.3c0,0.8,0.1,1.6,0.3,2.3l-0.4,0.2L37,85.7c-0.6,0.5-0.7,1.3-0.3,2
	l1.4,2.4c0.4,0.6,1.1,0.9,1.9,0.7l1.4-0.5l0.4-0.3c1.1,1,2.5,1.8,4,2.3v0.5l0.3,1.4c0.1,0.7,0.8,1.3,1.5,1.3h2.8
	c0.7,0,1.4-0.5,1.5-1.3l0.3-1.4v-0.5c1.5-0.5,2.9-1.3,4-2.3l0.4,0.3l1.4,0.5c0.7,0.2,1.5-0.1,1.9-0.7l1.4-2.4c0.4-0.6,0.2-1.5-0.3-2
	l-1.1-0.9L59.4,84.5z M49,87.7c-3,0-5.5-2.4-5.5-5.5c0-3,2.4-5.5,5.5-5.5c3,0,5.5,2.4,5.5,5.5C54.5,85.2,52,87.7,49,87.7z"/>
<path class="st0" d="M50.4,96.3h-2.8c-1.1,0-2.1-0.8-2.3-1.9L45,92.9c-1.2-0.4-2.3-1.1-3.3-1.9l-1.5,0.5c-1.1,0.4-2.2-0.1-2.8-1
	L36,88c-0.6-1-0.4-2.2,0.5-2.9l1.2-1c-0.1-0.6-0.2-1.3-0.2-1.9c0-0.6,0.1-1.3,0.2-1.9l-1.2-1c-0.8-0.7-1-2-0.5-2.9l1.4-2.4
	c0.6-1,1.7-1.4,2.8-1l1.5,0.5c1-0.8,2.1-1.5,3.4-1.9l0.3-1.5c0.2-1.1,1.2-1.9,2.3-1.9h2.8c1.1,0,2.1,0.8,2.3,1.9l0.3,1.5
	c1.2,0.4,2.3,1.1,3.3,1.9l1.5-0.5c1.1-0.4,2.2,0.1,2.8,1l1.4,2.4c0.6,1,0.4,2.2-0.5,2.9l-1.1,1c0.1,0.6,0.2,1.3,0.2,1.9
	c0,0.6-0.1,1.3-0.2,1.9l1.2,1c0.8,0.7,1,2,0.5,2.9l-1.4,2.4c-0.6,1-1.7,1.4-2.8,1L56.3,91c-1,0.8-2.1,1.5-3.4,1.9l-0.3,1.5
	C52.4,95.5,51.5,96.3,50.4,96.3z M41.7,89.2c0.2,0,0.4,0.1,0.5,0.2c1.1,1,2.3,1.7,3.7,2.1c0.3,0.1,0.5,0.4,0.5,0.7v0.5l0.3,1.2
	c0.1,0.4,0.4,0.6,0.8,0.6h2.8c0.4,0,0.7-0.3,0.8-0.6l0.3-1.4l0-0.3c0-0.3,0.2-0.6,0.5-0.7c1.4-0.4,2.6-1.1,3.7-2.1
	c0.3-0.2,0.6-0.3,0.9-0.1l0.4,0.3l1.2,0.4c0.4,0.1,0.7,0,0.9-0.3l1.4-2.4c0.2-0.3,0.1-0.7-0.2-1l-1.1-0.9L59,85.2
	c-0.3-0.2-0.4-0.5-0.4-0.8c0.2-0.7,0.2-1.4,0.2-2.1c0-0.7-0.1-1.4-0.2-2.1c-0.1-0.3,0.1-0.7,0.4-0.8l0.4-0.2l1-0.9
	c0.3-0.2,0.4-0.7,0.2-1l-1.4-2.4c-0.2-0.3-0.6-0.5-0.9-0.3l-1.4,0.5l-0.3,0.2c-0.3,0.2-0.7,0.1-0.9-0.1c-1.1-1-2.3-1.7-3.7-2.1
	c-0.3-0.1-0.5-0.4-0.5-0.7v-0.5l-0.3-1.2c-0.1-0.4-0.4-0.6-0.8-0.6h-2.8c-0.4,0-0.7,0.3-0.8,0.6l-0.3,1.4l0,0.3
	c0,0.3-0.2,0.6-0.5,0.7c-1.4,0.4-2.6,1.2-3.7,2.1c-0.2,0.2-0.6,0.3-0.9,0.1l-0.4-0.3l-1.2-0.4c-0.4-0.1-0.7,0-0.9,0.4l-1.4,2.4
	c-0.2,0.3-0.1,0.7,0.2,1l1.1,0.9l0.3,0.2c0.3,0.2,0.4,0.5,0.4,0.8c-0.2,0.7-0.2,1.4-0.2,2.1c0,0.7,0.1,1.4,0.2,2.1
	c0.1,0.3-0.1,0.7-0.4,0.8l-0.4,0.2l-1,0.9c-0.3,0.2-0.3,0.7-0.2,1l1.4,2.4c0.2,0.3,0.6,0.5,0.9,0.3l1.4-0.5l0.3-0.2
	C41.5,89.3,41.6,89.2,41.7,89.2z M49,88.4c-3.4,0-6.2-2.8-6.2-6.2c0-3.4,2.8-6.2,6.2-6.2c3.4,0,6.2,2.8,6.2,6.2
	C55.2,85.6,52.4,88.4,49,88.4z M49,77.5c-2.6,0-4.7,2.1-4.7,4.7c0,2.6,2.1,4.7,4.7,4.7c2.6,0,4.7-2.1,4.7-4.7
	C53.7,79.6,51.6,77.5,49,77.5z"/>
<path class="st0" d="M56.2,4.7c-0.5,2.2-1.4,4.4-2.5,6.4l1.2,1.1c1.1-1.8,1.9-3.8,2.5-5.8L56.2,4.7z"/>
</svg>
