<?xml version="1.0" encoding="utf-8"?>
<!-- Generator: Adobe Illustrator 22.1.0, SVG Export Plug-In . SVG Version: 6.00 Build 0)  -->
<svg version="1.1" id="Layer_1" xmlns="http://www.w3.org/2000/svg" xmlns:xlink="http://www.w3.org/1999/xlink" x="0px" y="0px"
	 viewBox="0 0 101.2 96" style="enable-background:new 0 0 101.2 96;" xml:space="preserve">
<style type="text/css">
	.st0{fill:#263238;}
	.st1{fill:#FF4800;}
	.st2{fill:#40C4FF;}
	.st3{fill:#FFFFFF;}
	.st4{fill:#FFD740;}
</style>
<g>
	<g>
		<path class="st0" d="M52,89.3H5.3c-2.9,0-5.2-2.3-5.2-5.2v-8.6c0-2.9,2.3-5.2,5.2-5.2H52c2.9,0,5.2,2.3,5.2,5.2v8.6
			C57.2,87,54.9,89.3,52,89.3z M5.3,72c-1.9,0-3.5,1.6-3.5,3.5v8.6c0,1.9,1.6,3.5,3.5,3.5H52c1.9,0,3.5-1.6,3.5-3.5v-8.6
			c0-1.9-1.6-3.5-3.5-3.5H5.3z"/>
	</g>
	<g>
		<path class="st0" d="M13.1,83.3c-1.9,0-3.5-1.6-3.5-3.5c0-1.9,1.6-3.5,3.5-3.5s3.5,1.6,3.5,3.5C16.6,81.7,15,83.3,13.1,83.3z
			 M13.1,78.1c-1,0-1.7,0.8-1.7,1.7s0.8,1.7,1.7,1.7c1,0,1.7-0.8,1.7-1.7S14.1,78.1,13.1,78.1z"/>
	</g>
	<g>
		<path class="st0" d="M46,80.7H21.8c-0.5,0-0.9-0.4-0.9-0.9c0-0.5,0.4-0.9,0.9-0.9H46c0.5,0,0.9,0.4,0.9,0.9
			C46.9,80.3,46.5,80.7,46,80.7z"/>
	</g>
	<g>
		<path class="st0" d="M52,72H5.3c-2.9,0-5.2-2.3-5.2-5.2v-8.6c0-2.9,2.3-5.2,5.2-5.2H52c2.9,0,5.2,2.3,5.2,5.2v8.6
			C57.2,69.7,54.9,72,52,72z M5.3,54.7c-1.9,0-3.5,1.6-3.5,3.5v8.6c0,1.9,1.6,3.5,3.5,3.5H52c1.9,0,3.5-1.6,3.5-3.5v-8.6
			c0-1.9-1.6-3.5-3.5-3.5H5.3z"/>
	</g>
	<g>
		<path class="st0" d="M13.1,66c-1.9,0-3.5-1.6-3.5-3.5c0-1.9,1.6-3.5,3.5-3.5s3.5,1.6,3.5,3.5C16.6,64.4,15,66,13.1,66z M13.1,60.8
			c-1,0-1.7,0.8-1.7,1.7c0,1,0.8,1.7,1.7,1.7c1,0,1.7-0.8,1.7-1.7C14.9,61.6,14.1,60.8,13.1,60.8z"/>
	</g>
	<g>
		<path class="st0" d="M46,63.4H21.8c-0.5,0-0.9-0.4-0.9-0.9c0-0.5,0.4-0.9,0.9-0.9H46c0.5,0,0.9,0.4,0.9,0.9
			C46.9,63,46.5,63.4,46,63.4z"/>
	</g>
	<g>
		<path class="st0" d="M52,54.7H5.3c-2.9,0-5.2-2.3-5.2-5.2v-8.6c0-2.9,2.3-5.2,5.2-5.2H52c2.9,0,5.2,2.3,5.2,5.2v8.6
			C57.2,52.4,54.9,54.7,52,54.7z M5.3,37.4c-1.9,0-3.5,1.6-3.5,3.5v8.6c0,1.9,1.6,3.5,3.5,3.5H52c1.9,0,3.5-1.6,3.5-3.5v-8.6
			c0-1.9-1.6-3.5-3.5-3.5H5.3z"/>
	</g>
	<g>
		<path class="st0" d="M13.1,48.7c-1.9,0-3.5-1.6-3.5-3.5c0-1.9,1.6-3.5,3.5-3.5s3.5,1.6,3.5,3.5C16.6,47.1,15,48.7,13.1,48.7z
			 M13.1,43.5c-1,0-1.7,0.8-1.7,1.7c0,1,0.8,1.7,1.7,1.7c1,0,1.7-0.8,1.7-1.7C14.9,44.3,14.1,43.5,13.1,43.5z"/>
	</g>
	<g>
		<path class="st0" d="M46,46.1H21.8c-0.5,0-0.9-0.4-0.9-0.9c0-0.5,0.4-0.9,0.9-0.9H46c0.5,0,0.9,0.4,0.9,0.9
			C46.9,45.7,46.5,46.1,46,46.1z"/>
	</g>
	<g>
		<path class="st0" d="M52.9,96.3H4.5c-0.5,0-0.9-0.4-0.9-0.9v-6.9c0-0.5,0.4-0.9,0.9-0.9h48.4c0.5,0,0.9,0.4,0.9,0.9v6.9
			C53.8,95.9,53.4,96.3,52.9,96.3z M5.3,94.5H52v-5.2H5.3V94.5z"/>
	</g>
	<g>
		<path class="st0" d="M33.5,15.3c-0.2,0-0.4-0.1-0.6-0.3C25.8,8,14.3,8,7.2,15.1c-0.3,0.3-0.9,0.3-1.2,0c-0.3-0.3-0.3-0.9,0-1.2
			c7.8-7.8,20.4-7.8,28.1,0c0.3,0.3,0.3,0.9,0,1.2C33.9,15.3,33.7,15.3,33.5,15.3z"/>
	</g>
	<g>
		<path class="st0" d="M28.6,20.2c-0.2,0-0.4-0.1-0.6-0.3c-4.4-4.4-11.5-4.4-15.9,0c-0.3,0.3-0.9,0.3-1.2,0c-0.3-0.3-0.3-0.9,0-1.2
			c5.1-5.1,13.3-5.1,18.3,0c0.3,0.3,0.3,0.9,0,1.2C29.1,20.1,28.8,20.2,28.6,20.2z"/>
	</g>
	<g>
		<path class="st0" d="M23.7,25.1c-0.2,0-0.4-0.1-0.6-0.3c-1.6-1.6-4.5-1.6-6.1,0c-0.3,0.3-0.9,0.3-1.2,0c-0.3-0.3-0.3-0.9,0-1.2
			c2.3-2.3,6.3-2.3,8.6,0c0.3,0.3,0.3,0.9,0,1.2C24.2,25,23.9,25.1,23.7,25.1z"/>
	</g>
	<g>
		<path class="st1" d="M79.7,86.7l10.4-10.4H84v-8.6c0-1-0.8-1.7-1.7-1.7h-5.2c-1,0-1.7,0.8-1.7,1.7v8.6h-6.1L79.7,86.7z"/>
		<path class="st0" d="M79.7,87.6c-0.2,0-0.4-0.1-0.6-0.3L68.7,77c-0.2-0.2-0.3-0.6-0.2-0.9c0.1-0.3,0.4-0.5,0.8-0.5h5.2v-7.8
			c0-1.4,1.2-2.6,2.6-2.6h5.2c1.4,0,2.6,1.2,2.6,2.6v7.8h5.2c0.3,0,0.7,0.2,0.8,0.5c0.1,0.3,0.1,0.7-0.2,0.9L80.3,87.3
			C80.2,87.5,79.9,87.6,79.7,87.6z M71.4,77.2l8.3,8.3l8.3-8.3h-4c-0.5,0-0.9-0.4-0.9-0.9v-8.6c0-0.5-0.4-0.9-0.9-0.9h-5.2
			c-0.5,0-0.9,0.4-0.9,0.9v8.6c0,0.5-0.4,0.9-0.9,0.9H71.4z"/>
	</g>
	<g>
		<path class="st0" d="M88.4,96.3H71.1c-1.4,0-2.6-1.2-2.6-2.6v-5.2c0-0.5,0.4-0.9,0.9-0.9c0.5,0,0.9,0.4,0.9,0.9v5.2
			c0,0.5,0.4,0.9,0.9,0.9h17.3c0.5,0,0.9-0.4,0.9-0.9v-5.2c0-0.5,0.4-0.9,0.9-0.9c0.5,0,0.9,0.4,0.9,0.9v5.2
			C91,95.1,89.8,96.3,88.4,96.3z"/>
	</g>
	<g>
		<path class="st2" d="M92.7,27.9c4.8,0,8.6-3.9,8.6-8.6l0,0c0-4.8-3.9-8.6-8.6-8.6h-2.6l0,0c0-5.7-4.6-10.4-10.4-10.4l0,0
			c-5.7,0-10.4,4.6-10.4,10.4l0,0h-2.6c-4.8,0-8.6,3.9-8.6,8.6l0,0c0,4.8,3.9,8.6,8.6,8.6H92.7z"/>
	</g>
	<g>
		<path class="st3" d="M89.2,41.8H75.4c-1,0-1.7-0.8-1.7-1.7V22.7c0-1,0.8-1.7,1.7-1.7h13.8c1,0,1.7,0.8,1.7,1.7V40
			C91,41,90.2,41.8,89.2,41.8z"/>
		<path class="st0" d="M89.2,42.6H75.4c-1.4,0-2.6-1.2-2.6-2.6V22.7c0-1.4,1.2-2.6,2.6-2.6h13.8c1.4,0,2.6,1.2,2.6,2.6V40
			C91.8,41.5,90.7,42.6,89.2,42.6z M75.4,21.9c-0.5,0-0.9,0.4-0.9,0.9V40c0,0.5,0.4,0.9,0.9,0.9h13.8c0.5,0,0.9-0.4,0.9-0.9V22.7
			c0-0.5-0.4-0.9-0.9-0.9H75.4z"/>
	</g>
	<g>
		<path class="st4" d="M84,36.6H70.2c-1,0-1.7-0.8-1.7-1.7V17.5c0-1,0.8-1.7,1.7-1.7H84c1,0,1.7,0.8,1.7,1.7v17.3
			C85.8,35.8,85,36.6,84,36.6z"/>
		<path class="st0" d="M84,37.4H70.2c-1.4,0-2.6-1.2-2.6-2.6V17.5c0-1.4,1.2-2.6,2.6-2.6H84c1.4,0,2.6,1.2,2.6,2.6v17.3
			C86.6,36.3,85.5,37.4,84,37.4z M70.2,16.7c-0.5,0-0.9,0.4-0.9,0.9v17.3c0,0.5,0.4,0.9,0.9,0.9H84c0.5,0,0.9-0.4,0.9-0.9V17.5
			c0-0.5-0.4-0.9-0.9-0.9H70.2z"/>
	</g>
	<g>
		<path class="st0" d="M81.5,22.7h-8.6c-0.5,0-0.9-0.4-0.9-0.9s0.4-0.9,0.9-0.9h8.6c0.5,0,0.9,0.4,0.9,0.9S81.9,22.7,81.5,22.7z"/>
	</g>
	<g>
		<path class="st0" d="M81.5,27.1h-8.6c-0.5,0-0.9-0.4-0.9-0.9c0-0.5,0.4-0.9,0.9-0.9h8.6c0.5,0,0.9,0.4,0.9,0.9
			C82.3,26.7,81.9,27.1,81.5,27.1z"/>
	</g>
	<g>
		<path class="st0" d="M81.5,31.4h-8.6c-0.5,0-0.9-0.4-0.9-0.9c0-0.5,0.4-0.9,0.9-0.9h8.6c0.5,0,0.9,0.4,0.9,0.9
			C82.3,31,81.9,31.4,81.5,31.4z"/>
	</g>
</g>
</svg>
