<?xml version="1.0" encoding="utf-8"?>
<!-- Generator: Adobe Illustrator 22.1.0, SVG Export Plug-In . SVG Version: 6.00 Build 0)  -->
<svg version="1.1" id="Layer_1" xmlns="http://www.w3.org/2000/svg" xmlns:xlink="http://www.w3.org/1999/xlink" x="0px" y="0px"
	 viewBox="0 0 109.7 96" style="enable-background:new 0 0 109.7 96;" xml:space="preserve">
<style type="text/css">
	.st0{fill:#263238;}
	.st1{fill:#FF4800;}
	.st2{fill:#40C4FF;}
</style>
<g>
	<g>
		<path class="st0" d="M101.3,89.1h-96c-2.8,0-5.1-2.3-5.1-5.1s2.3-5.1,5.1-5.1h96c2.8,0,5.1,2.3,5.1,5.1S104.1,89.1,101.3,89.1z
			 M5.3,80.6c-1.9,0-3.4,1.5-3.4,3.4s1.5,3.4,3.4,3.4h96c1.9,0,3.4-1.5,3.4-3.4s-1.5-3.4-3.4-3.4H5.3z"/>
	</g>
	<g>
		<path class="st0" d="M57.6,84.9H49c-1.4,0-2.6-1.2-2.6-2.6v-2.6c0-0.5,0.4-0.9,0.9-0.9c0.5,0,0.9,0.4,0.9,0.9v2.6
			c0,0.5,0.4,0.9,0.9,0.9h8.6c0.5,0,0.9-0.4,0.9-0.9v-2.6c0-0.5,0.4-0.9,0.9-0.9c0.5,0,0.9,0.4,0.9,0.9v2.6
			C60.1,83.7,59,84.9,57.6,84.9z"/>
	</g>
	<g>
		<path class="st0" d="M22.4,5.1h-6.9c-0.5,0-0.9-0.4-0.9-0.9c0-0.5,0.4-0.9,0.9-0.9h6.9c0.5,0,0.9,0.4,0.9,0.9
			C23.3,4.8,22.9,5.1,22.4,5.1z"/>
	</g>
	<g>
		<path class="st0" d="M19,8.6c-0.5,0-0.9-0.4-0.9-0.9V0.9C18.1,0.4,18.5,0,19,0s0.9,0.4,0.9,0.9v6.9C19.9,8.2,19.5,8.6,19,8.6z"/>
	</g>
	<g>
		<path class="st0" d="M7.9,12.9H1c-0.5,0-0.9-0.4-0.9-0.9s0.4-0.9,0.9-0.9h6.9c0.5,0,0.9,0.4,0.9,0.9S8.3,12.9,7.9,12.9z"/>
	</g>
	<g>
		<path class="st0" d="M4.4,16.3c-0.5,0-0.9-0.4-0.9-0.9V8.6c0-0.5,0.4-0.9,0.9-0.9c0.5,0,0.9,0.4,0.9,0.9v6.9
			C5.3,15.9,4.9,16.3,4.4,16.3z"/>
	</g>
	<g>
		<path class="st0" d="M89.3,72h-72c-1.4,0-2.6-1.2-2.6-2.6V24.9c0-1.4,1.2-2.6,2.6-2.6h48c0.5,0,0.9,0.4,0.9,0.9
			c0,0.5-0.4,0.9-0.9,0.9h-48c-0.5,0-0.9,0.4-0.9,0.9v44.6c0,0.5,0.4,0.9,0.9,0.9h72c0.5,0,0.9-0.4,0.9-0.9V46.8
			c0-0.5,0.4-0.9,0.9-0.9s0.9,0.4,0.9,0.9v22.6C91.9,70.8,90.7,72,89.3,72z"/>
	</g>
	<g>
		<path class="st0" d="M10.4,77.1c-0.5,0-0.9-0.4-0.9-0.9v-54c0-2.8,2.3-5.1,5.1-5.1h50.6c0.5,0,0.9,0.4,0.9,0.9s-0.4,0.9-0.9,0.9
			H14.7c-1.9,0-3.4,1.5-3.4,3.4v54C11.3,76.8,10.9,77.1,10.4,77.1z"/>
	</g>
	<g>
		<path class="st0" d="M73.4,96H70c-0.5,0-0.9-0.4-0.9-0.9c0-0.5,0.4-0.9,0.9-0.9h3.4c0.5,0,0.9,0.4,0.9,0.9
			C74.3,95.6,73.9,96,73.4,96z"/>
	</g>
	<g>
		<path class="st0" d="M66.6,96H32.3c-0.5,0-0.9-0.4-0.9-0.9c0-0.5,0.4-0.9,0.9-0.9h34.3c0.5,0,0.9,0.4,0.9,0.9
			C67.4,95.6,67,96,66.6,96z"/>
	</g>
	<g>
		<path class="st0" d="M101.3,31.7h-4.1c-0.5,0-0.9-0.4-0.9-0.9c0-0.5,0.4-0.9,0.9-0.9h4.1c3.8,0,6.9-3.1,6.9-6.9
			c0-3.8-3.1-6.9-6.9-6.9h-2.6c-0.5,0-0.9-0.4-0.9-0.9c0-5.2-4.2-9.4-9.4-9.4c-5.2,0-9.4,4.2-9.4,9.4c0,0.5-0.4,0.9-0.9,0.9h-2.6
			c-3.8,0-6.9,3.1-6.9,6.9c0,3.8,3.1,6.9,6.9,6.9h4.1c0.5,0,0.9,0.4,0.9,0.9c0,0.5-0.4,0.9-0.9,0.9h-4.1c-4.7,0-8.6-3.8-8.6-8.6
			c0-4.7,3.8-8.6,8.6-8.6h1.7c0.4-5.7,5.3-10.3,11.1-10.3c5.9,0,10.7,4.5,11.1,10.3h1.7c4.7,0,8.6,3.8,8.6,8.6
			C109.9,27.9,106,31.7,101.3,31.7z"/>
	</g>
	<g>
		<polygon class="st1" points="91.9,26.6 97.9,26.6 88.4,17.1 79,26.6 85,26.6 85,35.1 79,35.1 88.4,44.6 97.9,35.1 91.9,35.1 		"/>
		<path class="st0" d="M88.4,45.4c-0.2,0-0.4-0.1-0.6-0.3l-9.4-9.4c-0.2-0.2-0.3-0.6-0.2-0.9c0.1-0.3,0.4-0.5,0.8-0.5h5.1v-6.9H79
			c-0.3,0-0.7-0.2-0.8-0.5c-0.1-0.3-0.1-0.7,0.2-0.9l9.4-9.4c0.3-0.3,0.9-0.3,1.2,0l9.4,9.4c0.2,0.2,0.3,0.6,0.2,0.9
			c-0.1,0.3-0.4,0.5-0.8,0.5h-5.1v6.9h5.1c0.3,0,0.7,0.2,0.8,0.5c0.1,0.3,0.1,0.7-0.2,0.9L89,45.2C88.9,45.3,88.6,45.4,88.4,45.4z
			 M81.1,36l7.4,7.4l7.4-7.4h-3.9c-0.5,0-0.9-0.4-0.9-0.9v-8.6c0-0.5,0.4-0.9,0.9-0.9h3.9l-7.4-7.4l-7.4,7.4H85
			c0.5,0,0.9,0.4,0.9,0.9v8.6c0,0.5-0.4,0.9-0.9,0.9H81.1z"/>
	</g>
	<g>
		<path class="st0" d="M96.1,77.1c-0.5,0-0.9-0.4-0.9-0.9V41.7c0-0.5,0.4-0.9,0.9-0.9c0.5,0,0.9,0.4,0.9,0.9v34.6
			C97,76.8,96.6,77.1,96.1,77.1z"/>
	</g>
	<g>
		<path class="st2" d="M64.8,49.7c0.2-0.8,0.3-1.7,0.3-2.5c0-0.9-0.1-1.7-0.3-2.5l0.5-0.3l1.2-1c0.6-0.5,0.8-1.4,0.4-2.2l-1.5-2.6
			c-0.4-0.7-1.3-1-2-0.8l-1.5,0.5l-0.5,0.3c-1.3-1.1-2.7-2-4.4-2.5v-0.5l-0.3-1.5c-0.2-0.8-0.9-1.4-1.7-1.4h-3.1
			c-0.8,0-1.5,0.6-1.7,1.4l-0.3,1.5V36c-1.7,0.5-3.2,1.4-4.4,2.5l-0.5-0.3l-1.5-0.5c-0.8-0.3-1.6,0.1-2,0.8l-1.5,2.6
			c-0.4,0.7-0.3,1.6,0.4,2.2l1.2,1l0.5,0.3c-0.2,0.8-0.3,1.7-0.3,2.5c0,0.9,0.1,1.7,0.3,2.5l-0.5,0.3l-1.2,1
			c-0.6,0.5-0.8,1.4-0.4,2.2l1.5,2.6c0.4,0.7,1.3,1,2,0.8l1.5-0.5l0.5-0.3c1.3,1.1,2.7,2,4.4,2.5v0.5l0.3,1.5
			c0.2,0.8,0.9,1.4,1.7,1.4h3.1c0.8,0,1.5-0.6,1.7-1.4l0.3-1.5v-0.5c1.7-0.5,3.2-1.4,4.4-2.5l0.5,0.3l1.5,0.5c0.8,0.3,1.6-0.1,2-0.8
			l1.5-2.6c0.4-0.7,0.3-1.6-0.4-2.2l-1.2-1L64.8,49.7z M53.3,53.1c-3.3,0-6-2.7-6-6c0-3.3,2.7-6,6-6c3.3,0,6,2.7,6,6
			C59.3,50.5,56.6,53.1,53.3,53.1z"/>
		<path class="st0" d="M54.8,62.6h-3.1c-1.2,0-2.3-0.9-2.5-2.1l-0.3-1.6c-1.3-0.5-2.6-1.2-3.7-2.1l-1.6,0.6
			c-1.2,0.4-2.4-0.1-3.1-1.1l-1.5-2.6c-0.6-1.1-0.4-2.4,0.5-3.2l1.3-1.1c-0.1-0.7-0.2-1.4-0.2-2.1c0-0.7,0.1-1.4,0.2-2.1L39.6,44
			c-0.9-0.8-1.2-2.2-0.5-3.2l1.5-2.6c0.6-1,1.9-1.5,3-1.1l1.6,0.6c1.1-0.9,2.3-1.6,3.7-2.1l0.3-1.6c0.2-1.2,1.3-2.1,2.5-2.1h3.1
			c1.2,0,2.3,0.9,2.5,2.1l0.3,1.6c1.3,0.5,2.6,1.2,3.7,2.1l1.6-0.6c1.2-0.4,2.4,0.1,3.1,1.1l1.5,2.6c0.6,1.1,0.4,2.4-0.5,3.2
			L65.7,45c0.1,0.7,0.2,1.4,0.2,2.1c0,0.7-0.1,1.4-0.2,2.1l1.3,1.1c0.9,0.8,1.2,2.2,0.5,3.2L66,56.2c-0.6,1.1-1.9,1.5-3,1.1
			l-1.6-0.6c-1.1,0.9-2.3,1.6-3.7,2.1l-0.3,1.6C57.1,61.7,56,62.6,54.8,62.6z M45.4,54.9c0.2,0,0.4,0.1,0.6,0.2
			c1.2,1.1,2.6,1.9,4.1,2.4c0.4,0.1,0.6,0.4,0.6,0.8v0.5l0.3,1.4c0.1,0.4,0.4,0.7,0.8,0.7h3.1c0.4,0,0.8-0.3,0.8-0.7l0.3-1.5l0-0.4
			c0-0.4,0.2-0.7,0.6-0.8c1.5-0.5,2.9-1.3,4.1-2.4c0.3-0.3,0.7-0.3,1-0.1l0.5,0.3l1.4,0.4c0.4,0.1,0.8,0,1-0.4l1.5-2.6
			c0.2-0.4,0.1-0.8-0.2-1.1l-1.2-1l-0.3-0.2c-0.3-0.2-0.5-0.6-0.4-0.9c0.2-0.8,0.3-1.6,0.3-2.3c0-0.8-0.1-1.6-0.3-2.3
			c-0.1-0.4,0.1-0.7,0.4-0.9l0.5-0.3l1-0.9c0.3-0.3,0.4-0.7,0.2-1.1L64.5,39c-0.2-0.4-0.6-0.5-1-0.4L62,39.1l-0.3,0.2
			c-0.3,0.2-0.7,0.1-1-0.1c-1.2-1.1-2.6-1.9-4.1-2.4C56.2,36.7,56,36.4,56,36v-0.5l-0.3-1.4c-0.1-0.4-0.4-0.7-0.8-0.7h-3.1
			c-0.4,0-0.8,0.3-0.8,0.7l-0.3,1.5l0,0.4c0,0.4-0.2,0.7-0.6,0.8c-1.5,0.5-2.9,1.3-4.1,2.4c-0.3,0.3-0.7,0.3-1,0.1L44.4,39l-1.4-0.4
			c-0.4-0.1-0.8,0-1,0.4l-1.5,2.6c-0.2,0.4-0.1,0.8,0.2,1.1l1.2,1l0.3,0.2c0.3,0.2,0.5,0.6,0.4,0.9c-0.2,0.8-0.3,1.6-0.3,2.3
			c0,0.8,0.1,1.6,0.3,2.3c0.1,0.4-0.1,0.7-0.4,0.9l-0.5,0.3l-1,0.9c-0.3,0.3-0.4,0.7-0.2,1.1l1.5,2.6c0.2,0.4,0.6,0.5,1,0.4l1.5-0.5
			l0.3-0.2C45.1,54.9,45.2,54.9,45.4,54.9z M53.3,54c-3.8,0-6.9-3.1-6.9-6.9c0-3.8,3.1-6.9,6.9-6.9c3.8,0,6.9,3.1,6.9,6.9
			C60.2,50.9,57.1,54,53.3,54z M53.3,42c-2.8,0-5.1,2.3-5.1,5.1c0,2.8,2.3,5.1,5.1,5.1c2.8,0,5.1-2.3,5.1-5.1
			C58.5,44.3,56.2,42,53.3,42z"/>
	</g>
</g>
</svg>
