<?xml version="1.0" encoding="utf-8"?>
<!-- Generator: Adobe Illustrator 19.0.0, SVG Export Plug-In . SVG Version: 6.00 Build 0)  -->
<svg version="1.1" id="Layer_1" xmlns="http://www.w3.org/2000/svg" xmlns:xlink="http://www.w3.org/1999/xlink" x="0px" y="0px"
	 viewBox="0 0 87 21" style="enable-background:new 0 0 87 21;" xml:space="preserve">
<style type="text/css">
	.st0{fill:#C41230;}
</style>
<g>
	<path class="st0" d="M64.5,5.2h-4.8v0.4c0,0.7,0.3,1.6,1.4,1.6h1.4h1.8c1.9,0,2.9,0.6,2.5,2.7l-0.2,1.6c-0.3,2.2-1.8,2.4-3.1,2.4
		h-1.8l0.5-4.1c0.1-0.6-0.2-1.5-1.3-1.5h-1.5l-0.5,3.4l-0.4,3c-0.1,0.8,0.4,1.3,1.7,1.3H64c3.7,0,4.8-1.3,5.2-2.2
		c0.3-0.4,0.4-1.1,0.5-1.8c0-0.1,0.3-2.2,0.3-2.2c0.2-1.3-0.1-2.2-0.7-3C68.4,5.7,66.8,5.2,64.5,5.2L64.5,5.2z"/>
	<path class="st0" d="M21.2,5h-0.5c-3.8,0-5.7,1.6-6.1,4.6l-0.3,1.9c-0.2,1.3,0.1,2.3,0.7,3.1c0.8,0.9,2.2,1.5,4.3,1.5h0.5
		c3.7,0,5.6-1.5,6.1-4.3v-0.2l0.3-1.9c0.2-1.3-0.1-2.4-0.7-3.1C24.7,5.6,23.3,5,21.2,5z M23.2,9.7l-0.3,1.8
		c-0.1,0.8-0.3,1.3-0.6,1.8c-0.4,0.6-1.2,1-2.2,1h-0.5c-1,0-1.7-0.4-2-0.9c-0.2-0.4-0.3-1-0.2-1.8l0.3-1.8c0.1-0.9,0.4-1.6,0.9-2.2
		c0.4-0.4,1.2-0.7,2-0.7h0.5c0.5,0,1.3,0.1,1.7,0.6C23.2,8.1,23.3,8.7,23.2,9.7L23.2,9.7z"/>
	<path class="st0" d="M83.6,6.5c-0.8-0.9-2.2-1.5-4.3-1.5h-0.5c-3.8,0-5.7,1.6-6.1,4.6l-0.3,1.9c-0.2,1.3,0.1,2.3,0.7,3.1
		c0.8,0.9,2.2,1.5,4.3,1.5H78c3.7,0,5.6-1.5,6.1-4.3v-0.2l0.3-1.9C84.5,8.3,84.4,7.3,83.6,6.5L83.6,6.5z M81.3,9.7L81,11.5
		c-0.1,0.8-0.3,1.3-0.6,1.8c-0.4,0.6-1.2,1-2.2,1h-0.5c-1,0-1.7-0.4-2-0.9c-0.2-0.4-0.3-1-0.2-1.8l0.3-1.8c0.1-0.9,0.4-1.6,0.9-2.2
		c0.4-0.4,1.2-0.7,2-0.7h0.5c0.5,0,1.3,0.1,1.7,0.6C81.4,8.1,81.5,8.7,81.3,9.7L81.3,9.7z"/>
	<path class="st0" d="M51.4,5h-0.5c-3.8,0-5.7,1.6-6.1,4.6l-0.3,1.9c-0.2,1.3,0.1,2.3,0.7,3.1c0.8,0.9,2.2,1.5,4.3,1.5H50
		c3.7,0,5.6-1.5,6.1-4.3v-0.2l0.3-1.9c0.2-1.3-0.1-2.4-0.7-3.1C54.9,5.6,53.5,5,51.4,5z M53.3,9.7l-0.3,1.8
		c-0.1,0.8-0.3,1.3-0.6,1.8c-0.4,0.6-1.2,1-2.2,1h-0.5c-1,0-1.7-0.4-2-0.9c-0.2-0.4-0.3-1-0.2-1.8l0.3-1.8c0.1-0.9,0.4-1.6,0.9-2.2
		c0.4-0.4,1.2-0.7,2-0.7h0.5c0.5,0,1.3,0.1,1.7,0.6C53.3,8.1,53.5,8.7,53.3,9.7L53.3,9.7z"/>
	<path class="st0" d="M39.6,5.8l-4.1,4.7l-2.9-4.6c-0.3-0.4-0.8-0.6-1.7-0.6h-1.3l-1.3,10.6h1.6c0.5,0,0.9-0.2,1.2-0.4
		c0.4-0.3,0.5-0.7,0.6-1.2l0.5-4.7l2.2,4c0.1,0.2,0.4,0.4,0.7,0.4l0,0c0.4,0,0.6-0.4,0.7-0.4l3.2-4l-0.8,6.2h1.5
		c0.5,0,0.9-0.2,1.2-0.4c0.4-0.3,0.5-0.7,0.6-1.2l1.1-9h-1.3C40.5,5.2,39.9,5.4,39.6,5.8z"/>
	<path class="st0" d="M8.7,5.2c-0.5,0-1,0-1.4,0.1c-2.7,0.4-4,1.9-4.4,4.3l-0.3,1.9c-0.2,1.3,0.1,2.2,0.7,3c0.7,0.8,2,1.4,3.8,1.4
		h3.2c1.9,0,2.1-2,2.1-2H8.2c-0.5,0-1.2-0.1-1.5-0.2c-0.5-0.2-0.8-0.5-1-1.2c0-0.3,0-0.8,0-1.2l0.2-1.6C6,9.3,6,8.9,6.1,8.7
		c0.2-0.4,0.4-0.8,0.8-1.1c0.3-0.2,0.8-0.5,2.2-0.5h2.3c1.6,0,2-2,2-2L8.7,5.2L8.7,5.2z"/>
</g>
</svg>
